<svg xmlns="http://www.w3.org/2000/svg" xmlns:xlink="http://www.w3.org/1999/xlink"><defs>
<clipPath id="clip0_133_933">
<rect width="32" height="32" fill="white"/>
</clipPath>

<clipPath id="clip0_133_935">
<rect width="32" height="32" fill="white"/>
</clipPath>
</defs><symbol id="arrow-site" viewBox="0 0 20 20"><g fill="none">
<path d="M4.16663 10H15.8333" stroke="currentColor" stroke-width="1.2" stroke-linecap="round" stroke-linejoin="round"/>
<path d="M10 4.16663L15.8333 9.99996L10 15.8333" stroke="currentColor" stroke-width="1.2" stroke-linecap="round" stroke-linejoin="round"/>
</g></symbol><symbol id="calendar" viewBox="0 0 20 20"><g fill="none">
<path d="M15.8333 3.33398H4.16667C3.24619 3.33398 2.5 4.08018 2.5 5.00065V16.6673C2.5 17.5878 3.24619 18.334 4.16667 18.334H15.8333C16.7538 18.334 17.5 17.5878 17.5 16.6673V5.00065C17.5 4.08018 16.7538 3.33398 15.8333 3.33398Z" stroke="currentColor" stroke-width="1.2" stroke-linecap="round" stroke-linejoin="round"/>
<path d="M13.332 1.66602V4.99935" stroke="currentColor" stroke-width="1.2" stroke-linecap="round" stroke-linejoin="round"/>
<path d="M6.66797 1.66602V4.99935" stroke="currentColor" stroke-width="1.2" stroke-linecap="round" stroke-linejoin="round"/>
<path d="M2.5 8.33398H17.5" stroke="currentColor" stroke-width="1.2" stroke-linecap="round" stroke-linejoin="round"/>
</g></symbol><symbol id="phone-people" viewBox="0 0 40 40"><g fill="none">
<rect width="40" height="40" rx="20" fill="currentColor" fill-opacity="0.04"/>
<path d="M27.2222 27V25.2222C27.2222 24.2793 26.8476 23.3749 26.1808 22.7081C25.514 22.0413 24.6097 21.6667 23.6667 21.6667H16.5556C15.6126 21.6667 14.7082 22.0413 14.0414 22.7081C13.3746 23.3749 13 24.2793 13 25.2222V27" stroke="currentColor" stroke-width="1.2" stroke-linecap="round" stroke-linejoin="round"/>
<path d="M20.1112 18.1111C22.0749 18.1111 23.6668 16.5192 23.6668 14.5556C23.6668 12.5919 22.0749 11 20.1112 11C18.1475 11 16.5557 12.5919 16.5557 14.5556C16.5557 16.5192 18.1475 18.1111 20.1112 18.1111Z" stroke="currentColor" stroke-width="1.2" stroke-linecap="round" stroke-linejoin="round"/>
</g></symbol><symbol id="phone" viewBox="0 0 40 40"><g fill="none">
<rect width="40" height="40" rx="20" fill="currentColor" fill-opacity="0.04"/>
<path d="M27.9995 23.9791V26.3877C28.0004 26.6113 27.9545 26.8327 27.8648 27.0375C27.775 27.2424 27.6434 27.4263 27.4783 27.5775C27.3132 27.7286 27.1183 27.8437 26.906 27.9154C26.6938 27.987 26.4689 28.0136 26.2457 27.9935C23.7702 27.725 21.3923 26.8808 19.3031 25.5286C17.3594 24.2959 15.7114 22.6512 14.4763 20.7113C13.1167 18.6168 12.2706 16.2321 12.0065 13.7504C11.9864 13.5283 12.0129 13.3046 12.0842 13.0933C12.1555 12.882 12.2701 12.6879 12.4206 12.5233C12.5712 12.3586 12.7545 12.2271 12.9589 12.137C13.1632 12.0469 13.3841 12.0003 13.6074 12.0001H16.0209C16.4113 11.9962 16.7898 12.1342 17.0858 12.3883C17.3818 12.6424 17.5752 12.9952 17.6298 13.381C17.7317 14.1519 17.9206 14.9087 18.1929 15.6371C18.3012 15.9245 18.3246 16.2368 18.2604 16.5371C18.1963 16.8373 18.0472 17.1129 17.8309 17.3312L16.8092 18.3509C17.9545 20.3609 19.6221 22.0252 21.6361 23.1682L22.6578 22.1485C22.8765 21.9326 23.1527 21.7839 23.4535 21.7198C23.7544 21.6558 24.0673 21.6792 24.3552 21.7872C25.0851 22.059 25.8435 22.2476 26.6158 22.3492C27.0066 22.4042 27.3635 22.6007 27.6186 22.9012C27.8737 23.2017 28.0093 23.5853 27.9995 23.9791Z" stroke="currentColor" stroke-width="1.2" stroke-linecap="round" stroke-linejoin="round"/>
</g></symbol><symbol id="telegram" viewBox="0 0 32 32"><g fill="none">
<g clip-path="url(#clip0_133_933)">
<path fill-rule="evenodd" clip-rule="evenodd" d="M32 15.006C32 15.6725 32 16.3389 32 17.0054C31.9823 17.0858 31.9545 17.1654 31.9484 17.2467C31.7358 19.9999 30.8842 22.541 29.3369 24.8268C26.7856 28.5954 23.2638 30.9164 18.7786 31.752C18.1879 31.8621 17.5871 31.9187 16.9909 32C16.3239 32 15.6568 32 14.9897 32C14.6921 31.9613 14.3948 31.9195 14.0967 31.8842C10.9726 31.5127 8.16731 30.353 5.78371 28.3113C1.43016 24.5821 -0.491971 19.8276 0.106824 14.1199C0.493152 10.4378 2.04266 7.25024 4.7038 4.68667C9.09468 0.45659 14.3232 -0.915057 20.2278 0.592234C26.1465 2.10311 30.7694 7.24816 31.7562 13.2481C31.8522 13.8317 31.9194 14.42 32 15.006ZM15.7783 21.0695C17.0691 22.0201 18.3342 22.9536 19.6014 23.8841C20.4357 24.4968 21.0275 24.2688 21.2432 23.2552C22.0528 19.4515 22.8657 15.6487 23.6664 11.8432C23.7706 11.3481 23.8654 10.8394 23.8644 10.3371C23.8635 9.82423 23.4216 9.55057 22.9199 9.66714C22.7889 9.69757 22.6613 9.74585 22.5353 9.79432C18.6035 11.307 14.6717 12.8196 10.7409 14.3349C9.51805 14.8063 8.2952 15.278 7.07919 15.7665C6.80155 15.878 6.48625 16.0433 6.50953 16.3966C6.53303 16.754 6.87564 16.8476 7.16252 16.9384C8.37232 17.3212 9.58706 17.6885 10.7951 18.0767C11.008 18.1451 11.1633 18.1127 11.3443 17.9984C13.4209 16.6852 15.5017 15.3787 17.5815 14.0705C18.454 13.5218 19.3258 12.9721 20.1998 12.4257C20.4 12.3005 20.6058 12.1733 20.9114 12.3534C20.7761 12.4949 20.6724 12.6178 20.5543 12.7246C18.2508 14.8057 15.9482 16.8879 13.6366 18.96C13.4113 19.1621 13.2988 19.3628 13.2879 19.6735C13.262 20.4115 13.1881 21.1479 13.1367 21.8852C13.1038 22.3574 13.0765 22.83 13.0467 23.3025C13.0767 23.3288 13.1067 23.355 13.1366 23.3813C13.3576 23.2455 13.6074 23.1409 13.7945 22.9684C14.4604 22.3546 15.1049 21.7177 15.7783 21.0695Z" fill="#212121"/>
</g>

</g></symbol><symbol id="vk" viewBox="0 0 32 32"><g fill="none">
<g clip-path="url(#clip0_133_935)">
<path fill-rule="evenodd" clip-rule="evenodd" d="M16.9891 32C16.322 32 15.6548 32 14.9876 32C14.8972 31.9817 14.8075 31.9538 14.7161 31.9465C11.6366 31.6996 8.82328 30.6926 6.39453 28.7946C1.62634 25.0682 -0.525291 20.1541 0.108369 14.1274C0.555309 9.87642 2.53607 6.37697 5.82979 3.66545C11.0216 -0.608477 18.2012 -1.20441 24.0113 2.19143C28.2778 4.68514 30.8552 8.42137 31.759 13.2867C31.865 13.8573 31.9209 14.4372 32 15.0127C32 15.6789 32 16.345 32 17.0112C31.9824 17.0916 31.9547 17.1712 31.9485 17.2525C31.7376 19.9938 30.8901 22.525 29.353 24.803C26.8018 28.5839 23.2742 30.9139 18.7769 31.7522C18.1861 31.8623 17.5853 31.9188 16.9891 32ZM17.59 13.3387C17.59 12.6727 17.5939 12.0067 17.5888 11.3408C17.5845 10.8024 17.3618 10.5848 16.8244 10.5838C15.876 10.5821 14.9277 10.5864 13.9794 10.5813C13.7268 10.5799 13.4974 10.6067 13.3665 10.8587C13.2322 11.1172 13.362 11.3121 13.5169 11.5094C13.8858 11.9792 14.1235 12.5045 14.1273 13.1116C14.134 14.173 14.1392 15.2345 14.1228 16.2955C14.1206 16.4332 14.0166 16.6382 13.9054 16.686C13.7928 16.7345 13.5656 16.6738 13.4704 16.5789C13.0667 16.1764 12.6523 15.7734 12.3169 15.3156C11.4598 14.146 10.9213 12.8164 10.4855 11.443C10.2781 10.7896 10.0018 10.5842 9.32712 10.5835C8.75394 10.5829 8.18083 10.5815 7.60765 10.5839C6.9682 10.5865 6.70778 10.9456 6.88978 11.5654C7.6014 13.9891 8.75349 16.1986 10.2978 18.1828C11.8743 20.2083 13.856 21.5523 16.5746 21.4447C17.2879 21.4164 17.5853 21.1495 17.5891 20.4423C17.5922 19.8597 17.582 19.2768 17.5932 18.6943C17.6022 18.2209 17.9289 18.0261 18.3568 18.238C18.5891 18.3529 18.8141 18.4875 19.0272 18.6349C19.8828 19.227 20.5959 19.9699 21.2422 20.7774C21.6077 21.2341 22.0606 21.4592 22.6485 21.4438C23.2213 21.4289 23.7949 21.4351 24.3679 21.4429C24.67 21.4469 24.9287 21.3794 25.0815 21.0953C25.2351 20.8096 25.1361 20.5602 24.9709 20.3106C24.181 19.1166 23.2994 18.0022 22.22 17.0512C21.8079 16.6882 21.7621 16.2257 22.1006 15.8024C23.1597 14.4774 23.9632 12.9982 24.7313 11.497C24.9998 10.9723 24.7601 10.5873 24.1684 10.5841C23.5118 10.5806 22.8551 10.5929 22.1989 10.5801C21.7379 10.5712 21.4391 10.7677 21.2369 11.1806C20.8849 11.8991 20.5208 12.6125 20.134 13.3129C19.6443 14.1998 19.0871 15.0433 18.2782 15.6796C18.1517 15.7791 17.9213 15.8528 17.788 15.8041C17.6829 15.7657 17.6035 15.5223 17.5989 15.3675C17.5788 14.6917 17.5903 14.0151 17.59 13.3387Z" fill="#212121"/>
</g>

</g></symbol></svg>