<svg width="20" height="20" viewBox="0 0 20 20" fill="none" xmlns="http://www.w3.org/2000/svg">
<path fill-rule="evenodd" clip-rule="evenodd" d="M1.99264 9.99183C1.99264 7.36639 1.99127 4.74095 1.99333 2.11552C1.9942 1.04955 2.61232 0.250916 3.59933 0.0413953C3.75807 0.00765532 3.92502 0.00189332 4.0882 0.00174732C6.6589 -0.000596676 9.2297 -0.00176868 11.8005 0.00614232C11.9163 0.00643532 12.0611 0.0656153 12.1432 0.147109C14.0551 2.04745 15.9615 3.95336 17.8622 5.86508C17.9434 5.94682 18.0002 6.09325 18.0004 6.20971C18.0074 10.101 18.0077 13.9923 18.0053 17.8835C18.0045 19.1555 17.16 19.9978 15.8874 19.9985C11.9649 20.0005 8.0423 20.0003 4.11969 19.9986C2.83434 19.998 1.99411 19.1557 1.99318 17.8682C1.99132 15.2427 1.99264 12.6173 1.99264 9.99183ZM11.0138 2.09887C11.0138 3.70463 11.0138 5.3452 11.0138 6.97811C12.6711 6.97811 14.3105 6.97811 15.8918 6.97811C14.2738 5.35985 12.6374 3.72294 11.0138 2.09887ZM8.45602 16.0005C9.04167 16.0701 9.61574 16.0872 10.1909 16.0034C11.2279 15.8521 11.8084 15.2699 11.9527 14.235C12.0856 13.2812 11.6515 12.4661 10.8226 12.1742C10.049 11.9019 9.25509 11.9988 8.45602 12.0781C8.45602 13.3982 8.45602 14.6921 8.45602 16.0005ZM5.89557 14.6578C6.29762 14.5935 6.66974 14.5775 7.01291 14.4695C7.6193 14.2787 7.90665 13.7756 7.85177 13.1182C7.80558 12.5646 7.44069 12.1404 6.83019 12.0713C6.30045 12.0114 5.75866 12.0612 5.22228 12.0544C5.03859 12.0519 4.98844 12.1243 4.98966 12.305C4.99762 13.4682 4.99347 14.6313 4.9943 15.7946C4.99435 15.8622 5.00299 15.9299 5.00744 15.9957C5.31134 15.9957 5.5946 15.9957 5.89557 15.9957C5.89557 15.5235 5.89557 15.0728 5.89557 14.6578ZM14.9902 12.0474C14.178 12.0474 13.3809 12.0474 12.5799 12.0474C12.5799 13.3748 12.5799 14.6826 12.5799 16.004C12.8775 16.004 13.1612 16.004 13.4703 16.004C13.4703 15.4736 13.4703 14.955 13.4703 14.408C13.9575 14.408 14.4203 14.408 14.8878 14.408C14.8878 14.1557 14.8878 13.9328 14.8878 13.6795C14.41 13.6795 13.9459 13.6795 13.4813 13.6795C13.4813 13.3628 13.4813 13.0768 13.4813 12.768C13.7402 12.768 13.9879 12.768 14.2357 12.768C14.4832 12.768 14.731 12.768 14.9902 12.768C14.9902 12.5144 14.9902 12.2853 14.9902 12.0474Z" fill="currentColor"/>
<path fill-rule="evenodd" clip-rule="evenodd" d="M9.35547 15.3328C9.35547 14.4643 9.35547 13.6098 9.35547 12.757C9.84692 12.5969 10.4418 12.7379 10.7324 13.0805C11.0517 13.4571 11.1025 14.2462 10.8399 14.7456C10.5932 15.2144 10.1011 15.4137 9.35547 15.3328Z" fill="currentColor"/>
<path fill-rule="evenodd" clip-rule="evenodd" d="M5.89844 13.8746C5.89844 13.4908 5.89844 13.1183 5.89844 12.7488C6.23784 12.6151 6.65435 12.6815 6.83813 12.8943C6.98467 13.0639 7.00669 13.3937 6.88516 13.5986C6.7272 13.8651 6.34697 13.976 5.89844 13.8746Z" fill="currentColor"/>
</svg>
