<svg width="40" height="40" viewBox="0 0 40 40" fill="none" xmlns="http://www.w3.org/2000/svg">
<rect width="40" height="40" rx="20" fill="currentColor" fill-opacity="0.04"/>
<path d="M27.2222 27V25.2222C27.2222 24.2793 26.8476 23.3749 26.1808 22.7081C25.514 22.0413 24.6097 21.6667 23.6667 21.6667H16.5556C15.6126 21.6667 14.7082 22.0413 14.0414 22.7081C13.3746 23.3749 13 24.2793 13 25.2222V27" stroke="currentColor" stroke-width="1.2" stroke-linecap="round" stroke-linejoin="round"/>
<path d="M20.1112 18.1111C22.0749 18.1111 23.6668 16.5192 23.6668 14.5556C23.6668 12.5919 22.0749 11 20.1112 11C18.1475 11 16.5557 12.5919 16.5557 14.5556C16.5557 16.5192 18.1475 18.1111 20.1112 18.1111Z" stroke="currentColor" stroke-width="1.2" stroke-linecap="round" stroke-linejoin="round"/>
</svg>
