<svg width="32" height="32" viewBox="0 0 32 32" fill="none" xmlns="http://www.w3.org/2000/svg">
<g clip-path="url(#clip0_133_933)">
<path fill-rule="evenodd" clip-rule="evenodd" d="M32 15.006C32 15.6725 32 16.3389 32 17.0054C31.9823 17.0858 31.9545 17.1654 31.9484 17.2467C31.7358 19.9999 30.8842 22.541 29.3369 24.8268C26.7856 28.5954 23.2638 30.9164 18.7786 31.752C18.1879 31.8621 17.5871 31.9187 16.9909 32C16.3239 32 15.6568 32 14.9897 32C14.6921 31.9613 14.3948 31.9195 14.0967 31.8842C10.9726 31.5127 8.16731 30.353 5.78371 28.3113C1.43016 24.5821 -0.491971 19.8276 0.106824 14.1199C0.493152 10.4378 2.04266 7.25024 4.7038 4.68667C9.09468 0.45659 14.3232 -0.915057 20.2278 0.592234C26.1465 2.10311 30.7694 7.24816 31.7562 13.2481C31.8522 13.8317 31.9194 14.42 32 15.006ZM15.7783 21.0695C17.0691 22.0201 18.3342 22.9536 19.6014 23.8841C20.4357 24.4968 21.0275 24.2688 21.2432 23.2552C22.0528 19.4515 22.8657 15.6487 23.6664 11.8432C23.7706 11.3481 23.8654 10.8394 23.8644 10.3371C23.8635 9.82423 23.4216 9.55057 22.9199 9.66714C22.7889 9.69757 22.6613 9.74585 22.5353 9.79432C18.6035 11.307 14.6717 12.8196 10.7409 14.3349C9.51805 14.8063 8.2952 15.278 7.07919 15.7665C6.80155 15.878 6.48625 16.0433 6.50953 16.3966C6.53303 16.754 6.87564 16.8476 7.16252 16.9384C8.37232 17.3212 9.58706 17.6885 10.7951 18.0767C11.008 18.1451 11.1633 18.1127 11.3443 17.9984C13.4209 16.6852 15.5017 15.3787 17.5815 14.0705C18.454 13.5218 19.3258 12.9721 20.1998 12.4257C20.4 12.3005 20.6058 12.1733 20.9114 12.3534C20.7761 12.4949 20.6724 12.6178 20.5543 12.7246C18.2508 14.8057 15.9482 16.8879 13.6366 18.96C13.4113 19.1621 13.2988 19.3628 13.2879 19.6735C13.262 20.4115 13.1881 21.1479 13.1367 21.8852C13.1038 22.3574 13.0765 22.83 13.0467 23.3025C13.0767 23.3288 13.1067 23.355 13.1366 23.3813C13.3576 23.2455 13.6074 23.1409 13.7945 22.9684C14.4604 22.3546 15.1049 21.7177 15.7783 21.0695Z" fill="#212121"/>
</g>
<defs>
<clipPath id="clip0_133_933">
<rect width="32" height="32" fill="white"/>
</clipPath>
</defs>
</svg>
