<svg width="32" height="32" viewBox="0 0 32 32" fill="none" xmlns="http://www.w3.org/2000/svg">
<g clip-path="url(#clip0_133_935)">
<path fill-rule="evenodd" clip-rule="evenodd" d="M16.9891 32C16.322 32 15.6548 32 14.9876 32C14.8972 31.9817 14.8075 31.9538 14.7161 31.9465C11.6366 31.6996 8.82328 30.6926 6.39453 28.7946C1.62634 25.0682 -0.525291 20.1541 0.108369 14.1274C0.555309 9.87642 2.53607 6.37697 5.82979 3.66545C11.0216 -0.608477 18.2012 -1.20441 24.0113 2.19143C28.2778 4.68514 30.8552 8.42137 31.759 13.2867C31.865 13.8573 31.9209 14.4372 32 15.0127C32 15.6789 32 16.345 32 17.0112C31.9824 17.0916 31.9547 17.1712 31.9485 17.2525C31.7376 19.9938 30.8901 22.525 29.353 24.803C26.8018 28.5839 23.2742 30.9139 18.7769 31.7522C18.1861 31.8623 17.5853 31.9188 16.9891 32ZM17.59 13.3387C17.59 12.6727 17.5939 12.0067 17.5888 11.3408C17.5845 10.8024 17.3618 10.5848 16.8244 10.5838C15.876 10.5821 14.9277 10.5864 13.9794 10.5813C13.7268 10.5799 13.4974 10.6067 13.3665 10.8587C13.2322 11.1172 13.362 11.3121 13.5169 11.5094C13.8858 11.9792 14.1235 12.5045 14.1273 13.1116C14.134 14.173 14.1392 15.2345 14.1228 16.2955C14.1206 16.4332 14.0166 16.6382 13.9054 16.686C13.7928 16.7345 13.5656 16.6738 13.4704 16.5789C13.0667 16.1764 12.6523 15.7734 12.3169 15.3156C11.4598 14.146 10.9213 12.8164 10.4855 11.443C10.2781 10.7896 10.0018 10.5842 9.32712 10.5835C8.75394 10.5829 8.18083 10.5815 7.60765 10.5839C6.9682 10.5865 6.70778 10.9456 6.88978 11.5654C7.6014 13.9891 8.75349 16.1986 10.2978 18.1828C11.8743 20.2083 13.856 21.5523 16.5746 21.4447C17.2879 21.4164 17.5853 21.1495 17.5891 20.4423C17.5922 19.8597 17.582 19.2768 17.5932 18.6943C17.6022 18.2209 17.9289 18.0261 18.3568 18.238C18.5891 18.3529 18.8141 18.4875 19.0272 18.6349C19.8828 19.227 20.5959 19.9699 21.2422 20.7774C21.6077 21.2341 22.0606 21.4592 22.6485 21.4438C23.2213 21.4289 23.7949 21.4351 24.3679 21.4429C24.67 21.4469 24.9287 21.3794 25.0815 21.0953C25.2351 20.8096 25.1361 20.5602 24.9709 20.3106C24.181 19.1166 23.2994 18.0022 22.22 17.0512C21.8079 16.6882 21.7621 16.2257 22.1006 15.8024C23.1597 14.4774 23.9632 12.9982 24.7313 11.497C24.9998 10.9723 24.7601 10.5873 24.1684 10.5841C23.5118 10.5806 22.8551 10.5929 22.1989 10.5801C21.7379 10.5712 21.4391 10.7677 21.2369 11.1806C20.8849 11.8991 20.5208 12.6125 20.134 13.3129C19.6443 14.1998 19.0871 15.0433 18.2782 15.6796C18.1517 15.7791 17.9213 15.8528 17.788 15.8041C17.6829 15.7657 17.6035 15.5223 17.5989 15.3675C17.5788 14.6917 17.5903 14.0151 17.59 13.3387Z" fill="#212121"/>
</g>
<defs>
<clipPath id="clip0_133_935">
<rect width="32" height="32" fill="white"/>
</clipPath>
</defs>
</svg>
